<svg id="icon_vk" xmlns="http://www.w3.org/2000/svg" xmlns:xlink="http://www.w3.org/1999/xlink" width="20.33" height="20.114" viewBox="0 0 20.33 20.114">
  <defs>
    <clipPath id="clip-path">
      <path id="Path_296" data-name="Path 296" d="M0,10.319H20.33V-9.8H0Z" transform="translate(0 9.795)" fill="#fff"/>
    </clipPath>
  </defs>
  <g id="Group_148" data-name="Group 148" transform="translate(0 0)" clip-path="url(#clip-path)">
    <g id="Group_147" data-name="Group 147" transform="translate(-0.001 0.001)">
      <path id="Path_295" data-name="Path 295" d="M7.238,0H1.1C-4.51,0-6.87,2.072-6.87,7.678V13.82c0,5.606,2.36,6.294,7.968,6.294h6.14c5.606,0,6.222-.688,6.222-6.294V7.678C13.46,2.072,12.844,0,7.238,0m3.084,14.707H8.862c-.557,0-.721-.285-1.711-1.275-.867-.836-1.382-.865-1.6-.865-.3,0-.528.162-.528.579v1.31c0,.359.031.569-.9.569A5.577,5.577,0,0,1-.254,12.354C-2.063,9.816-2.523,8.025-2.523,7.639c0-.218.121-.285.538-.285h1.46c.374,0,.513.035.653.439.715,2.08,2.16,3.836,2.655,3.836a.553.553,0,0,0,.511-.622V8.857c0-.99-.821-.943-.821-1.3,0-.162-.1-.207.131-.207H4.9c.31,0,.127-.09.127.281v2.893a.416.416,0,0,0,.372.417c.187,0,.413-.109.754-.448a13.534,13.534,0,0,0,1.83-2.859c.094-.218.3-.285.672-.285h1.462c.442,0,.534.1.442.409a17.414,17.414,0,0,1-1.965,3.294c-.156.246-.218.339,0,.618.154.216.665.632,1,1.035a6.149,6.149,0,0,1,1.232,1.544c.121.413-.088.454-.505.454" transform="translate(6.87 0)" fill="#fff"/>
    </g>
  </g>
</svg>
