<svg xmlns="http://www.w3.org/2000/svg" width="19.406" height="19.406" viewBox="0 0 19.406 19.406">
  <path id="icon_instagram" d="M9.7,1.725a29.752,29.752,0,0,1,3.881.108,5,5,0,0,1,1.833.323A3.786,3.786,0,0,1,17.25,3.989a5,5,0,0,1,.323,1.833c0,.97.108,1.294.108,3.881a29.751,29.751,0,0,1-.108,3.881,5,5,0,0,1-.323,1.833,3.786,3.786,0,0,1-1.833,1.833,5,5,0,0,1-1.833.323c-.97,0-1.294.108-3.881.108a29.751,29.751,0,0,1-3.881-.108,5,5,0,0,1-1.833-.323,3.786,3.786,0,0,1-1.833-1.833,5,5,0,0,1-.323-1.833c0-.97-.108-1.294-.108-3.881a29.752,29.752,0,0,1,.108-3.881,5,5,0,0,1,.323-1.833,3.872,3.872,0,0,1,.755-1.078,1.823,1.823,0,0,1,1.078-.755,5,5,0,0,1,1.833-.323A29.752,29.752,0,0,1,9.7,1.725M9.7,0A31.855,31.855,0,0,0,5.714.108,6.656,6.656,0,0,0,3.342.539,4.221,4.221,0,0,0,1.617,1.617,4.221,4.221,0,0,0,.539,3.342,4.912,4.912,0,0,0,.108,5.714,31.855,31.855,0,0,0,0,9.7a31.855,31.855,0,0,0,.108,3.989,6.656,6.656,0,0,0,.431,2.372,4.221,4.221,0,0,0,1.078,1.725,4.221,4.221,0,0,0,1.725,1.078,6.656,6.656,0,0,0,2.372.431,31.855,31.855,0,0,0,3.989.108,31.855,31.855,0,0,0,3.989-.108,6.656,6.656,0,0,0,2.372-.431,4.523,4.523,0,0,0,2.8-2.8,6.656,6.656,0,0,0,.431-2.372c0-1.078.108-1.4.108-3.989A31.855,31.855,0,0,0,19.3,5.714a6.656,6.656,0,0,0-.431-2.372,4.221,4.221,0,0,0-1.078-1.725A4.221,4.221,0,0,0,16.064.539,6.656,6.656,0,0,0,13.692.108,31.855,31.855,0,0,0,9.7,0m0,4.744A4.879,4.879,0,0,0,4.744,9.7,4.959,4.959,0,1,0,9.7,4.744m0,8.194A3.177,3.177,0,0,1,6.469,9.7,3.177,3.177,0,0,1,9.7,6.469,3.177,3.177,0,0,1,12.937,9.7,3.177,3.177,0,0,1,9.7,12.937m5.175-9.6a1.186,1.186,0,1,0,1.186,1.186,1.2,1.2,0,0,0-1.186-1.186" fill="#fff" fill-rule="evenodd"/>
</svg>
