<svg xmlns="http://www.w3.org/2000/svg" width="19.406" height="15.74" viewBox="0 0 19.406 15.74">
  <path id="icon_twitter" d="M44.145,17.74A11.22,11.22,0,0,0,55.465,6.42V5.881a8.763,8.763,0,0,0,1.941-2.048,8.95,8.95,0,0,1-2.264.647,4.2,4.2,0,0,0,1.725-2.156,9.889,9.889,0,0,1-2.48.97A3.85,3.85,0,0,0,51.476,2a4.051,4.051,0,0,0-3.989,3.989,2.1,2.1,0,0,0,.108.862,11.146,11.146,0,0,1-8.194-4.2A4.129,4.129,0,0,0,38.862,4.7a4.283,4.283,0,0,0,1.725,3.342A3.635,3.635,0,0,1,38.755,7.5h0a3.94,3.94,0,0,0,3.234,3.881,3.324,3.324,0,0,1-1.078.108,1.835,1.835,0,0,1-.755-.108,4.084,4.084,0,0,0,3.773,2.8,8.14,8.14,0,0,1-4.959,1.725A2.985,2.985,0,0,1,38,15.8a10.176,10.176,0,0,0,6.145,1.941" transform="translate(-38 -2)" fill="#fff" fill-rule="evenodd"/>
</svg>
