<svg xmlns="http://www.w3.org/2000/svg" width="28.94" height="36.371" viewBox="0 0 28.94 36.371">
  <g id="icon_login" transform="translate(-1105.022 -51.701)">
    <circle id="Ellipse_31" data-name="Ellipse 31" cx="9.174" cy="9.174" r="9.174" transform="translate(1110.042 51.701)" fill="#ff6d00"/>
    <path id="Path_153" data-name="Path 153" d="M1133.256,81.674h-27.528a.706.706,0,0,1-.706-.706V69.509a5.715,5.715,0,0,1,5.531-5.7.711.711,0,0,1,.307.06c.861.368,5.482,2.285,8.632,2.285s7.773-1.916,8.633-2.285a.7.7,0,0,1,.306-.06,5.715,5.715,0,0,1,5.532,5.7V80.968A.706.706,0,0,1,1133.256,81.674Z" transform="translate(0 6.398)" fill="#ff6d00"/>
  </g>
</svg>
