<svg xmlns="http://www.w3.org/2000/svg" width="90.499" height="90.501" viewBox="0 0 90.499 90.501">
  <g id="logo" transform="translate(-211.235 -137.233)">
    <path id="Path_244" data-name="Path 244" d="M322.233,197.361l.016.015a.734.734,0,0,0,.667.4.962.962,0,0,0,.177-.018c.406-.071.509-.479.562-.675l.016-.053a.455.455,0,0,1,.116-.1.219.219,0,0,0,.1-.238.228.228,0,0,0-.191-.171,4.117,4.117,0,0,0-1.015.059,2.733,2.733,0,0,0-.731.284.224.224,0,0,0-.111.223.218.218,0,0,0,.167.186A.508.508,0,0,1,322.233,197.361Z" transform="translate(-61.502 -32.958)" fill="#58638e"/>
    <path id="Path_245" data-name="Path 245" d="M256.485,137.233a45.25,45.25,0,1,0,45.249,45.25A45.3,45.3,0,0,0,256.485,137.233Zm36.975,22.778a7.637,7.637,0,0,1-2.916-1.978,11.578,11.578,0,0,1-2.4-5.012A43.544,43.544,0,0,1,293.46,160.011Zm-5.933-2.518a9.931,9.931,0,0,0,5.009,4.751c-.035,0-.066,0-.1,0-1.051,0-2.023-.341-3.634-2.043-2.4-2.528-3.728-7.3-4.508-10.846.291.245.577.495.861.747A32.8,32.8,0,0,0,287.527,157.493Zm-59.549-7.534c.794-.056,1.578-.1,2.339-.1h.108c7.346.031,13.439.586,19.3,3.192a28.128,28.128,0,0,1,5.073,2.994.216.216,0,0,0,.215.025,1.788,1.788,0,0,1,.821-.122l.182,0h0a.214.214,0,0,0,.181-.1.218.218,0,0,0,.021-.212c-.108-.253-.194-.5-.281-.752l-.021-.054a1.234,1.234,0,0,1-.043-.516.219.219,0,0,0-.092-.2l-.1-.075c-.686-.5-1.4-1.011-2.135-1.46-.13-.082-.242-.156-.358-.238l-.121-.077a6.457,6.457,0,0,0-.864-.491l-.082-.038c-.744-.34-2.1-.956-3.69-1.576a52.889,52.889,0,0,1,5.311,1.752,20.556,20.556,0,0,1,2.532,1.265l.215.116a.266.266,0,0,0,.2.008,1.25,1.25,0,0,1,.381-.1l.228.02.108.024a2.744,2.744,0,0,0,.67.094,3.189,3.189,0,0,0,1.46-.481.224.224,0,0,0,.008-.383l-1.327-.818a10.3,10.3,0,0,0-1.733-.847l-.194-.082c-.394-.162-.64-.287-.9-.422l-.164-.083c-.22-.112-.45-.23-.765-.366a25.245,25.245,0,0,0-4.295-1.489,45.614,45.614,0,0,0-11.711-1.565,48.851,48.851,0,0,0-7.233.567,43.131,43.131,0,0,1,39.376-5.8,20.271,20.271,0,0,1,1.968,2.989v4.924h0a.222.222,0,0,0,.156.214,3.465,3.465,0,0,1,.778.368c.048.028.1.04.146.071a4.529,4.529,0,0,1,.842.723.23.23,0,0,0,.164.069.246.246,0,0,0,.077-.029h0c.026-.01.052-.01.072-.028a.21.21,0,0,0,.064-.15c0-.007.01-.007.01-.013.021-1.952.04-4.023-.064-5.955l-.112-1.524A43.311,43.311,0,0,1,281.5,147.2c1,4.74,2.245,9.191,3.849,11.9,2.174,3.68,4.615,5.467,7.472,5.467a8.3,8.3,0,0,0,2.8-.553,42.967,42.967,0,0,1,1.913,4.767c-.1.143-.208.288-.307.429a34.815,34.815,0,0,0-1.992,3c-5.163,9.1-7.027,16.342-8.363,25.082l-.111.733c-.025.154-.048.315-.071.471-.071-.315-.135-.635-.206-.946a29.14,29.14,0,0,1-.895-5.359l-.008-.347c-.079-2.258-.26-7.546-1.976-10.378a16.762,16.762,0,0,0-3.568-3.517c-.784-.639-1.534-1.26-2.1-1.818l-.013-.012h0a.78.78,0,0,0,.125-.5c-.09-1.112-.89-4.462-3.306-5.218l-.021-.13c-.021-.322-.044-.634-.06-.925l.008-.013a2.472,2.472,0,0,0,.654-.032.8.8,0,0,0,.562-.445.786.786,0,0,0-.018-.726c-.472-.9-.215-1.79.28-3.281l.212-.649c.069-.213.138-.425.212-.642a8.229,8.229,0,0,0,.6-4.552l0-.015h.016c.151.007.3.025.445.041l.4.044.069,0a.817.817,0,0,0,.816-.8c.01-1.848-2.1-3.733-3.56-4.332l-.008-.012a4.092,4.092,0,0,0-.843-2.419A3.593,3.593,0,0,0,272.169,150a.753.753,0,0,0-.7.276.8.8,0,0,0-.19.639,2.047,2.047,0,0,1,0,.487v.02l-.021-.01a9.686,9.686,0,0,0-6.651-.468,14.9,14.9,0,0,0-4.061,1.833,4.9,4.9,0,0,1-2.472.987,3,3,0,0,1-.783-.108.844.844,0,0,0-.872.317.793.793,0,0,0-.1.729,8.456,8.456,0,0,0,.721,1.657l.013.02-.026,0a7.4,7.4,0,0,1-.9,0l-.268-.008c-.125,0-.251-.007-.376-.007a.818.818,0,0,0-.722.388.8.8,0,0,0-.021.8,5.463,5.463,0,0,0,3.112,2.647l-.008.041a7.746,7.746,0,0,0,.072,2.2.141.141,0,0,0-.03.007.521.521,0,0,0-.341.2.653.653,0,0,0-.1.509,13.655,13.655,0,0,0,.5,2.386.616.616,0,0,0,.243.286.084.084,0,0,0-.01.033l-.059.218c-.373,1.317-.5,1.985-.092,2.412a1.74,1.74,0,0,0,1.47.534c-.056.471-.06,1.211.708,1.416a1.457,1.457,0,0,0,1,1.45c.074,1.819,1.046,2.9,2.619,2.9a4.505,4.505,0,0,0,.972-.119,7.317,7.317,0,0,0,2.009-1.045,9.9,9.9,0,0,1,.384,1.506l0,.008-.048.023c-.138.105-1.693,1.554-2.355,2.317a20.883,20.883,0,0,0-2.657,3.665,23.2,23.2,0,0,0-2.135,6.141c-.122.522-.251,1.056-.394,1.611a28.543,28.543,0,0,1-1.987,5.587l-.048.1c-.061.126-.138.286-.238.473-.448.9-1.283,2.562-1.663,3.542l0,.013-.013,0c-1.838-.734-7.157-3.089-9.425-4.094l-.381-.169.018-.016c1.1-1.148,2.355-2.526,3.487-3.772l.363-.4c.373-.409.653-.719.774-.836a.811.811,0,0,0,.229-.639.8.8,0,0,0-.346-.6l-4.805-3.347c-2.864-1.992-6.43-4.47-6.766-4.723a.666.666,0,0,0-.416-.2l-.333-.117a.144.144,0,0,0-.091-.012,12.15,12.15,0,0,0-4.485,1.1h0c-.25-.109-4.477-2.431-6.5-3.63a3.467,3.467,0,0,0-.929-.3.511.511,0,0,0-.125-.018l-.138.006a.82.82,0,0,0-.762.863c.066,1.037,1.284,9.963,1.66,11.382a2.033,2.033,0,0,0,1.214,1.417c.484.289,3.237,1.885,5.467,3.176l.021.013-.026.01a8.259,8.259,0,0,0-2.112,1.4c-.749.7-5.45,6.93-9.777,12.775a43.171,43.171,0,0,1,6.5-57.923Zm54.186,67.335c-.371-2.05-.819-4.542-1-5.978l-.005-.01.013,0a10,10,0,0,1,1.889-.171h.079a10.923,10.923,0,0,1,1.261.115c.509.063.869.095,1.2.107l.013.015c.028.7.065,1.791.1,3A43.6,43.6,0,0,1,282.165,217.294Zm-5.792,3.608c-1.3-.137-2.615-.271-3.962-.384-.289-.023-.578-.043-.869-.064l-.458-.033h-.016a.226.226,0,0,0-.191.1,13.11,13.11,0,0,1-1.283,1.795.221.221,0,0,0-.034.23.216.216,0,0,0,.186.136l2.305.168a42.9,42.9,0,0,1-7.081,2.067c.233-.074.453-.147.653-.218a7.741,7.741,0,0,0,1.624-.82l.575-.417a11.88,11.88,0,0,0,3.047-3.678l.736-1.493a18.789,18.789,0,0,0,.919-2.711l.008-.01c2.4-.021,4.24-2.493,5.61-4.334l.138-.194.013.008a1.944,1.944,0,0,0,.93.425,2.592,2.592,0,0,0,.271.025l.044,0,0,.013c.222,1.642.736,4.47,1.149,6.74l.013.056,0,.015A43.343,43.343,0,0,1,276.373,220.9Zm-36.812-4.549a75.2,75.2,0,0,1,16.779-3.265.815.815,0,0,0-.069-1.628l-.044,0c-.435.028-.867.063-1.3.1l-.035,0,.026-.026a18.894,18.894,0,0,1,4.546-3.915l.008,0c.566.222,1.192.453,1.9.713.847.309,1.72.629,2.416.929l-.013.035c-.509,1.969-.631,5.692,2.092,7.356a8.979,8.979,0,0,1-1.984,1.848.754.754,0,0,0-.22,1.039.779.779,0,0,0,1.036.22,11.9,11.9,0,0,0,4.4-5.9,7.409,7.409,0,0,0,1.836,1.325l.013,0,0,.01c-1.045,4-3.288,7.045-5.86,7.96a100.716,100.716,0,0,1-10.483,2.539,42.986,42.986,0,0,1-21.547-6.877C235.221,217.9,238.191,216.84,239.562,216.354Zm-8.086,1.417q-.776-.553-1.528-1.137c2.619-2.768,5.53-5.96,7.212-8.172l.008-.01.013.007c1.02.673,2.864,1.869,5.648,3.649l1.806,1.163-.035.007c-2.887.673-4.918,1.307-5.583,1.547C236.42,215.742,233.419,216.846,231.475,217.771Zm31.55-48.9a.681.681,0,0,0-.864-.209,4.4,4.4,0,0,1-1.4.572c.013-.159.043-.4.09-.71l.056-.468a.2.2,0,0,0-.059-.177.219.219,0,0,0-.161-.069h-.013l-.549.035a1.6,1.6,0,0,1-1.081-.128,6.444,6.444,0,0,1,.294-1.269c.031-.1.058-.192.082-.282a1.816,1.816,0,0,0,1.327.558l.562-.029a5.615,5.615,0,0,0,2.053-.345c.943-.445,1.141-2.253,1.107-3.363l1.529-.163a3.316,3.316,0,0,1,.148,1.176.809.809,0,0,0,.194.6.788.788,0,0,0,.545.281.821.821,0,0,0,.88-.734l.058-.539a1.191,1.191,0,0,1,.4-.915.988.988,0,0,1,.787-.23c.228.033.7.1.7,1.144a3.886,3.886,0,0,1-1.572,2.693.576.576,0,0,0,.319,1.054.822.822,0,0,0,.532-.259l.077-.063,0,.008A10.8,10.8,0,0,0,273,169.022l.008.011c.018.425.052.916.092,1.43l.013.181c.056.739.111,1.5.12,2.081l0,.012a21.649,21.649,0,0,0-4.495,3.375l-.021.023-.005-.031a13.112,13.112,0,0,0-.734-3.354l.056-.049a5.069,5.069,0,0,0,1.041-1.209.769.769,0,0,0,.066-.573.777.777,0,0,0-.368-.447.792.792,0,0,0-1.015.3,8.782,8.782,0,0,1-3.28,2.447,1.613,1.613,0,0,1-1.327-.115c-.394-.31-.431-1.1-.45-1.472-.035-.685-.742-.842-1.033-.907a.48.48,0,0,1-.133-.059.546.546,0,0,1-.06-.315,6.709,6.709,0,0,0,1.343-.618A.64.64,0,0,0,263.025,168.867Zm-3.971-13a1.306,1.306,0,0,1-.294-.291,7.827,7.827,0,0,0,2.749-1.2,12.965,12.965,0,0,1,3.582-1.631,7.549,7.549,0,0,1,6.159.769,1.039,1.039,0,0,0,.543.156,1.052,1.052,0,0,0,.982-.675c.038-.105.1-.269.164-.47a2.231,2.231,0,0,1,.514,1.823,1.046,1.046,0,0,0,.964,1.238,4.484,4.484,0,0,1,2.1,1.567,2.568,2.568,0,0,0-.967.309,1.056,1.056,0,0,0-.416,1.365c.614,1.271.177,2.586-.333,4.138-.077.225-.151.452-.228.678-.066.207-.135.416-.207.624a8.411,8.411,0,0,0-.606,3.033,10.141,10.141,0,0,1-3.34-1.547,4.46,4.46,0,0,0,.67-2.157,2.243,2.243,0,0,0-1.9-2.519,2.347,2.347,0,0,0-1.319.2l-.422.048c-.074-.189-.143-.361-.212-.524-.052-.123-.095-.227-.126-.31a8.1,8.1,0,0,1-.358-2.856,1.026,1.026,0,0,0-.286-.765,1.078,1.078,0,0,0-1.555.031,6.1,6.1,0,0,1-4.265,1.889,5.731,5.731,0,0,1-2.861-.645,3.629,3.629,0,0,0,1.287-.535,1.05,1.05,0,0,0-.026-1.746Zm15.8,16.436v-.027l.023.018a6.087,6.087,0,0,1,1.508,3.128v.008a22.657,22.657,0,0,1-5.515,4.646l-.016.008,0-.013a8.823,8.823,0,0,0-1.444-2.306l-.008-.012.018-.016a13.815,13.815,0,0,1,4.994-3.8.778.778,0,0,0,.445-.68C274.866,173,274.866,172.691,274.852,172.3Zm.89,23.09a24.67,24.67,0,0,1,.8,3.349,31.47,31.47,0,0,0,.859,4.8l0,.012-.013.008a1.791,1.791,0,0,0-.53.534,2.829,2.829,0,0,0,.3,3.086,2.309,2.309,0,0,1,.4,1.665c0,.138.008.287.016.456l-.008.007c-.233.274-.5.619-.816,1.056l-.108.149c-.951,1.288-2.541,3.439-4.157,3.439-1.2-.013-2.4-1.312-3.669-2.69a14.9,14.9,0,0,0-3.41-3.007,27.384,27.384,0,0,0-3.5-1.444l-.36-.131,0-.006c-1.012-1.122-.869-3.336-.524-4.551a23.839,23.839,0,0,1,1.15-3.017c.35-.813.709-1.657.994-2.527a46.079,46.079,0,0,0,1.1-5.431l.1-.574c.172-1.023.35-2.081.543-3.073a31.9,31.9,0,0,1,3.293-8.338l.122-.162.013.015a7.782,7.782,0,0,1,1.309,2.475.816.816,0,0,0,1.155.489,23.113,23.113,0,0,0,6.035-4.634l0-.008.008.007c.6.59,1.353,1.205,2.074,1.8l.1.082a15.664,15.664,0,0,1,3.189,3.08c1.516,2.513,1.68,7.871,1.738,9.632l.008.307a30.828,30.828,0,0,0,.938,5.69,27.387,27.387,0,0,1,.834,4.879l-.013.015a6.183,6.183,0,0,1-3.6.978,5.909,5.909,0,0,1-1.337-.213l-.163-.043a11.014,11.014,0,0,0-1.586-.3l-.018-.013a29.694,29.694,0,0,1-.859-4.7,24.422,24.422,0,0,0-.847-3.565,26.6,26.6,0,0,1-.821-3.376.8.8,0,0,0-.8-.7.685.685,0,0,0-.116.01.819.819,0,0,0-.7.9A20.509,20.509,0,0,0,275.742,195.4Zm-7.934,17.168-.012.163a6.73,6.73,0,0,1-1.059,2.7c-2.167-1.248-1.777-4.38-1.578-5.413a17.18,17.18,0,0,1,2.468,2.355Zm-8.639-50.241a7.059,7.059,0,0,1-.085-1.8,9.4,9.4,0,0,0,1.569.131,8.191,8.191,0,0,0,4.291-1.343l.021-.013v.021a8.861,8.861,0,0,0,.392,1.795c.058.153.117.305.183.455l.008.025-.692.074C262.836,161.886,260.341,162.155,259.17,162.323Zm4.042.8a4.059,4.059,0,0,1-.4,2.089,4.93,4.93,0,0,1-1.525.218l-.583.035c-.458,0-.921-.762-1.176-1.915C260.272,163.443,261.509,163.3,263.212,163.118Zm4.062,14.564-.358.483a32.457,32.457,0,0,0-3.608,9.029c-.212,1.112-.411,2.305-.614,3.527l-.029.15a44.015,44.015,0,0,1-1.043,5.2c-.25.787-.575,1.537-.915,2.328l-.052.13a25.9,25.9,0,0,0-1.184,3.119,9.2,9.2,0,0,0-.13,4.148l.008.03-.026-.01a6.147,6.147,0,0,1-2.151-1.374c-1.3-2.591-.337-4.874.6-7.109l.105-.248c.268-.642.562-1.24.843-1.821l.072-.155a21.387,21.387,0,0,0,2.019-5.482l.108-.5a24.1,24.1,0,0,1,2.363-7.315,16.666,16.666,0,0,1,1.371-2.015l.117-.161a7.854,7.854,0,0,1,2.445-1.935Zm18.612,32.066a9.787,9.787,0,0,1-1.2-.1l-.087-.008a12.451,12.451,0,0,0-1.444-.125h-.138a12.522,12.522,0,0,0-2.551.271,3.068,3.068,0,0,1-.938.1c-.223-.043-.319-.06-.337-1.125a4.768,4.768,0,0,0-.212-1.6,5.394,5.394,0,0,0-.4-.788c-.4-.688-.562-1.051-.338-1.4.052-.089.256-.108.416-.108a7.535,7.535,0,0,1,1.547.271l.051-.215h0l.011.23a7.81,7.81,0,0,0,6.314-.934l.061-.038a1.925,1.925,0,0,1,.2-.13.379.379,0,0,0,.12-.072.076.076,0,0,0,.021-.021l.047.026c.053.028.222.214.36.751a8.472,8.472,0,0,1-.19,4.467A1.357,1.357,0,0,1,285.885,209.747Zm-30.556-6.566.008.025-.029-.015c-3.033-1.808-9.065-5.544-11.317-6.957l-.013-.007.016-.016c.2-.182.416-.388.641-.611l.008-.008,1.34.6c3.677,1.629,7.847,3.475,9.354,4.07l.013.015A8.744,8.744,0,0,0,255.329,203.181Zm-25.836-15.092c.855-2.841,2.462-6.192,7.3-7.006-2.022,2.127-5.855,6.077-7.407,7.441C229.427,188.376,229.461,188.226,229.493,188.089Zm-.347-8.235,1.144.639c.9.5,1.5.833,1.928,1.063a9.081,9.081,0,0,0-2.278,2.44A10.508,10.508,0,0,0,229.146,179.854Zm1.063,10.1c1.673-1.41,5.856-5.749,8.2-8.213l.008-.008.013.006c.929.657,2.821,1.969,4.966,3.464l5.293,3.682-.535.591c-2.542,2.8-5.251,5.728-6.055,6.18s-1.542.212-2.67-.386c-1.028-.55-7-4.007-9.218-5.293l-.016-.01Zm-1.961-2.108c-.039.123-.065.233-.09.338-.352-1.836-1.12-7.284-1.4-9.573C229.466,181.15,228.585,186.323,228.248,187.849ZM222.5,209.236c4.39-5.926,9.252-12.378,9.854-12.939a5.048,5.048,0,0,1,2.856-1.382,2.127,2.127,0,0,1,.32.027l.039.016c1.568.9,2.7,1.542,3.094,1.75a5.476,5.476,0,0,0,2.567.821,3.248,3.248,0,0,0,1.314-.283l0,0,0,0c1.979,1.284,14.273,9.161,15.064,9.568l.021.01-.021.016a27.3,27.3,0,0,0-5.043,4.976l-.013.007c-1.854.24-3.767.559-5.687.954l-.013,0c-.565-.366-1.775-1.149-3.163-2.036l-.522-.332c-1.862-1.2-3.928-2.532-5.07-3.281l-.012-.007.008-.013a3.815,3.815,0,0,0,.379-.762.793.793,0,0,0-.029-.613.824.824,0,0,0-.471-.419.848.848,0,0,0-1.033.506c-.425,1.246-4.41,5.705-8.27,9.8A43.648,43.648,0,0,1,222.5,209.236Zm64.784,3.612c-.021-.681-.041-1.262-.059-1.68l.01-.016a2.752,2.752,0,0,0,1.322-1.074c.773-1.191.943-5.045.051-6.669a2.171,2.171,0,0,0-.458-.578c.026-.033.06-.061.066-.1l.06-.555c.007-.052.012-.105.015-.156,0-.005.007-.007.007-.01a70.62,70.62,0,0,1,5.764-22.824,66.206,66.206,0,0,1,4.275-7.711c.162.613.306,1.232.44,1.855-2.737,5.723-3.944,11.38-4.811,18.4a72.22,72.22,0,0,0-.368,12.988A43.537,43.537,0,0,1,287.287,212.848Zm8.47-12.209a87.217,87.217,0,0,1,1.035-13.817,45.922,45.922,0,0,1,2.606-9.868,42.878,42.878,0,0,1-3.642,23.684Z" transform="translate(0)" fill="#58638e"/>
  </g>
</svg>
