<svg xmlns="http://www.w3.org/2000/svg" width="624.605" height="668.939" viewBox="0 0 624.605 668.939">
  <g id="people_homepage" transform="translate(-281.395 -235)">
    <path id="Path_304" data-name="Path 304" d="M203.171,444.266c0,5.279-27.486,9.558-61.394,9.558s-61.393-4.279-61.393-9.558,27.486-9.559,61.393-9.559S203.171,438.985,203.171,444.266Z" transform="translate(251.995 450.116)" opacity="0.08" style="mix-blend-mode: multiply;isolation: isolate"/>
    <path id="Path_305" data-name="Path 305" d="M470.722,444.266c0,5.279-25.071,9.558-56,9.558s-56-4.279-56-9.558,25.073-9.559,56-9.559S470.722,438.985,470.722,444.266Z" transform="translate(435.278 450.116)" opacity="0.08" style="mix-blend-mode: multiply;isolation: isolate"/>
    <path id="Path_355" data-name="Path 355" d="M9.988,0h62.4a9.989,9.989,0,0,1,9.989,9.989V72.382a9.988,9.988,0,0,1-9.988,9.988H9.989A9.989,9.989,0,0,1,0,72.381V9.988A9.988,9.988,0,0,1,9.988,0Z" transform="translate(823.626 455.434)" fill="#a0a6c4"/>
    <g id="Group_161" data-name="Group 161" transform="translate(473.483 376.794)">
      <path id="Path_306" data-name="Path 306" d="M165.465,437.913A19.593,19.593,0,0,0,185.057,457.5H428.33a19.593,19.593,0,0,0,19.59-19.592V404.649H165.465Z" transform="translate(-165.465 53.53)" fill="#fff"/>
      <path id="Path_307" data-name="Path 307" d="M447.92,147.977a19.592,19.592,0,0,0-19.59-19.593H185.057a19.592,19.592,0,0,0-19.592,19.593v33.264H447.92Z" transform="translate(-165.465 -128.384)" fill="#fff"/>
    </g>
    <g id="Group_165" data-name="Group 165" transform="translate(794.875 612.95)">
      <g id="Group_164" data-name="Group 164" transform="translate(0)">
        <g id="Group_163" data-name="Group 163">
          <path id="Path_308" data-name="Path 308" d="M413.6,341.355c9.584,4.511,20.86-.284,19.17-12.123-.282-3.1-3.949-6.2-4.227-9.02,0-2.819,3.382-5.357,4.509-7.611,1.972-3.665,2.536-7.612.282-10.994-1.692-2.821-3.663-3.1-4.227-5.921-.846-3.665,1.408-6.483-.846-10.43-1.975-3.1-3.949-4.793-7.612-4.509-3.946.564-5.357,3.382-9.02.28-2.819-2.254-1.974-6.2-5.359-7.893-5.917-3.1-19.165,3.664-20.578,9.866-1.692,7.611,5.077,9.586,8.458,13.532l4.433,37.775Z" transform="translate(-342.02 -269.738)" fill="#ff6d00"/>
          <path id="Path_309" data-name="Path 309" d="M435.385,389.779l21.32-25.943L438.848,325.49l-46.632-.342L374.9,314.816l-9.426-36.752-4.3,2.721,2.43,38.621,26.649,23.079,4.7,46.837h34l5.578-41.972,9.659,16.1L430.27,390.675l1.889,2.8Z" transform="translate(-357.984 -265.979)" fill="#ffc0b6"/>
          <path id="Path_310" data-name="Path 310" d="M402.308,315.729l-13.3-2.68-.774-11.5-2.513-2.2,2.513-2.2,3.66-13.185,13.06,6.637-.9,7.51,1.733.7s3.35-3.728,4.74-2.005c1.441,1.791-.367,4.028-2.8,5.286l1.678,6.2Z" transform="translate(-341.821 -262.092)" fill="#ffc0b6"/>
          <rect id="Rectangle_116" data-name="Rectangle 116" width="8.982" height="15.887" transform="translate(51.542 50.333)" fill="#ffc0b6"/>
          <path id="Path_311" data-name="Path 311" d="M401.916,378.605l14.047,113.406h7.309S428.3,388.88,427.1,366.584C426.335,352.5,419,345.148,419,345.148H384.832s-7.334,7.355-8.1,21.436c-1.2,22.3,3.829,125.427,3.829,125.427h7.311Z" transform="translate(-347.863 -221.806)" fill="#00183f"/>
          <path id="Path_312" data-name="Path 312" d="M407.329,345.574c7.266-2.355,3.375,2.6,3.375,2.6s4.972,6.684,3.639,8.153c-1.841,2.013-10.366-6.9-10.366-6.9Z" transform="translate(-329.802 -221.943)" fill="#ffc0b6"/>
          <path id="Path_313" data-name="Path 313" d="M390.33,302.032v.774l8.982,4.086v-3.1Z" transform="translate(-338.788 -250.197)" fill="#ffaea7"/>
          <path id="Path_314" data-name="Path 314" d="M368.682,275.213l-5.818-.517-.654,5.941,4.908,1.668,1.574.327c4.962-7.367-.01-7.418-.01-7.418" transform="translate(-357.304 -268.197)" fill="#ffc0b6"/>
          <g id="Group_162" data-name="Group 162" transform="translate(1.163)">
            <path id="Path_315" data-name="Path 315" d="M369.969,288.255l-10.016-.429.149-16.891,11.052-.157Z" transform="translate(-359.953 -270.777)"/>
            <rect id="Rectangle_117" data-name="Rectangle 117" width="12.159" height="7.742" transform="translate(1.273 14.112) rotate(-87.602)" fill="#d5d8e7"/>
          </g>
          <path id="Path_316" data-name="Path 316" d="M359.252,275.247s6.246.078,5.564,3.173c-.783,3.594-5.564,3.368-5.564,3.368s-1.124-.321-1.249-3.368S359.252,275.247,359.252,275.247Z" transform="translate(-359.252 -268.197)" fill="#ffc0b6"/>
          <path id="Path_317" data-name="Path 317" d="M455.741,349.244,437.883,310.9l-46.632-.342-17.317-10.333-11.292,4.59,26.649,23.079,4.7,46.837h34l5.578-41.972,9.659,16.1Z" transform="translate(-357.019 -251.388)" fill="#fff"/>
          <path id="Path_318" data-name="Path 318" d="M408.16,306.649l-10.8,16.9-10.093-17.037Z" transform="translate(-340.804 -247.246)" fill="#ffc0b6"/>
        </g>
      </g>
      <path id="Path_319" data-name="Path 319" d="M407.623,433.7c2.7,0,17.572,8.884,17.572,8.884H400.314V433.7Z" transform="translate(-332.214 -163.496)" fill="#e5e5e5"/>
      <path id="Path_320" data-name="Path 320" d="M385.945,433.7c-2.7,0-17.57,8.884-17.57,8.884h24.884V433.7Z" transform="translate(-353.245 -163.496)" fill="#e5e5e5"/>
    </g>
    <rect id="Rectangle_118" data-name="Rectangle 118" width="282.456" height="511.035" rx="18" transform="translate(473.483 376.794)" fill="none" stroke="#fff" stroke-miterlimit="10" stroke-width="3"/>
    <g id="Group_168" data-name="Group 168" transform="translate(281.395 570.921)">
      <rect id="Rectangle_119" data-name="Rectangle 119" width="66.119" height="66.119" rx="7.139" transform="translate(0 14.892)" fill="#fff"/>
      <path id="Path_321" data-name="Path 321" d="M205.766,321.485l23.156-31.357-5.185-2.462-28.015,24.688-23.869,7.476-45.584-.688L100.9,333.247,74.761,302.558l-5.185,2.462,27.939,46.833,26.813-11.326-2.855,52.556h50.6l1.771-52.786Z" transform="translate(-36.516 -217.628)" fill="#00183f"/>
      <path id="Path_322" data-name="Path 322" d="M154.354,351.229,166.89,491.495h-8.5L128.664,369.783,104.99,491.495h-8.5l7.261-140.266Z" transform="translate(-18.794 -175.773)" fill="#a0a6c4"/>
      <path id="Path_323" data-name="Path 323" d="M133.813,435.8v7.33h3.962v-1.807l2.48,1.807h18.489l-16.431-7.33Z" transform="translate(5.782 -120.082)" fill="#00183f"/>
      <path id="Path_324" data-name="Path 324" d="M111.515,435.8v7.33h-3.966v-1.807l-2.483,1.807H86.581l16.432-7.33Z" transform="translate(-25.318 -120.082)" fill="#00183f"/>
      <g id="Group_167" data-name="Group 167" transform="translate(94.263 44.578)">
        <path id="Path_325" data-name="Path 325" d="M111.721,306.1l-5.242-10.549,5.242-15.911.335,6.767,23.461-14.1-3.1,9.019,7.291-5.646,5.114,21.039-5.114,10.163Z" transform="translate(-106.479 -272.315)" fill="#00183f"/>
        <g id="Group_166" data-name="Group 166" transform="translate(2.781 23.24)">
          <path id="Path_326" data-name="Path 326" d="M126.4,291.1s3.571-1.33,3.484,1.551c-.113,3.642-4.825,6-4.825,6Z" transform="translate(-97.026 -283.386)" fill="#ffc0b6"/>
          <path id="Path_327" data-name="Path 327" d="M111.971,290.721s-3.725-1.614-3.813,1.269c-.111,3.642,4.919,6.3,4.919,6.3Z" transform="translate(-108.156 -283.73)" fill="#ffc0b6"/>
          <path id="Path_328" data-name="Path 328" d="M114.087,315.441l18.434.567,5.114-28.832-27.794-.849Z" transform="translate(-107.046 -286.327)" fill="#ffc0b6"/>
          <path id="Path_329" data-name="Path 329" d="M117.9,291.219l-1.242,10.048,4.754.177" transform="translate(-102.558 -283.106)" fill="none" stroke="#ffaea7" stroke-miterlimit="10" stroke-width="0.5"/>
        </g>
        <path id="Path_330" data-name="Path 330" d="M115.061,310.512l.151-8.7,9.011-.26-.1,9.016S119.7,324.86,115.061,310.512Z" transform="translate(-100.828 -253.062)" fill="#ffc0b6"/>
        <path id="Path_331" data-name="Path 331" d="M124.188,308.409l-9.076-3.28v-1.165l9.028.277Z" transform="translate(-100.794 -251.474)" fill="#ffaea7"/>
      </g>
      <path id="Rectangle_120" data-name="Rectangle 120" d="M7.14,0h51.84a7.14,7.14,0,0,1,7.14,7.14V58.98a7.139,7.139,0,0,1-7.139,7.139H7.139A7.139,7.139,0,0,1,0,58.98V7.14A7.14,7.14,0,0,1,7.14,0Z" transform="translate(159.347)" fill="#ff6d00"/>
      <path id="Path_332" data-name="Path 332" d="M164.945,285.488h6.6a65.828,65.828,0,0,1-3.164,6.448l-5.186-2.461C158.575,282.7,164.945,285.488,164.945,285.488Z" transform="translate(24.024 -219.436)" fill="#ffc0b6"/>
    </g>
    <path id="Path_333" data-name="Path 333" d="M74.269,294.467h-6.6a65.977,65.977,0,0,0,3.166,6.45l5.184-2.461C80.641,291.679,74.269,294.467,74.269,294.467Z" transform="translate(243.621 357.398)" fill="#ffc0b6"/>
    <path id="Path_354" data-name="Path 354" d="M2.246,0H231.237a2.246,2.246,0,0,1,2.246,2.246V15.068a2.246,2.246,0,0,1-2.246,2.246H2.246A2.246,2.246,0,0,1,0,15.068V2.246A2.246,2.246,0,0,1,2.246,0Z" transform="translate(497.971 454.415)" fill="#a0a6c4"/>
    <g id="Group_169" data-name="Group 169" transform="translate(494.179 761.504)">
      <rect id="Rectangle_122" data-name="Rectangle 122" width="237.275" height="6.885" transform="translate(0)" fill="#fff"/>
      <rect id="Rectangle_123" data-name="Rectangle 123" width="237.275" height="6.885" transform="translate(0 20.297)" fill="#fff"/>
      <rect id="Rectangle_124" data-name="Rectangle 124" width="237.275" height="6.885" transform="translate(0 40.594)" fill="#fff"/>
    </g>
    <path id="Path_334" data-name="Path 334" d="M218.328,101.734c21.988,15.507,32.418-25.934,16.349-27.345-4.791-.28-6.763.627-11.838-2.474-4.791-2.819-4.509-8.458-5.919-13.533a21.848,21.848,0,0,0-10.5-14.072c-6.863-3.773-19.67.479-24.744,6.682-3.1,3.946-6.765,14.883,4.229,20.3l20.515,11.278Z" transform="translate(316.606 192.113)" fill="#00183f"/>
    <path id="Path_335" data-name="Path 335" d="M210.573,88.366l-10.059,17.053-27.645,28.4-.665-3.134,21.315-30.075,10.057-26.879Z" transform="translate(312.457 212.421)" fill="#e55d42"/>
    <path id="Path_336" data-name="Path 336" d="M175.565,129.241,164.09,195H155.8l3.883-63.45Z" transform="translate(301.654 248.974)" fill="#d5d8e7"/>
    <path id="Path_337" data-name="Path 337" d="M210.741,76.17l-12.1,7.151-6.836-5.6-3.334.053-.153-3.96L180.893,60.1l14.124-3.79,4.344,6.17,1.746-.639s0-5,2.176-4.647c2.27.368,2.426,3.231,1.451,5.788l3.652,3.839Z" transform="translate(318.178 200.951)" fill="#ffc0b6"/>
    <rect id="Rectangle_125" data-name="Rectangle 125" width="8.963" height="15.852" transform="matrix(0.861, -0.508, 0.508, 0.861, 520.702, 281.111)" fill="#ffc0b6"/>
    <path id="Path_338" data-name="Path 338" d="M203.254,70.653l-8.694,2.91-.4-.672,7.716-4.562Z" transform="translate(326.917 208.865)" fill="#ffaea7"/>
    <path id="Path_339" data-name="Path 339" d="M224.029,71.543l14.687,64.747-29.8-2.5-3.137-32.811,7.241,5.884L173.347,137.5l-1.143-5.379,25.251-28.957,6.121-28Z" transform="translate(312.457 210.982)" fill="#ff6d00"/>
    <path id="Path_340" data-name="Path 340" d="M257.9,111.577s6.777,29.468-17.774,29.788l-54.64-.635-34.785,68.522-7.642-3.226,30.707-83.383,54.333-13.57" transform="translate(293.268 235.694)" fill="#d5d8e7"/>
    <path id="Path_341" data-name="Path 341" d="M170.515,181.218H146.042l16.181-12.327h8.292Z" transform="translate(295.229 275.083)" fill="#a0a6c4"/>
    <path id="Path_342" data-name="Path 342" d="M153.733,182.114,131.184,172.6l19.7-5.063,7.641,3.226Z" transform="translate(285.445 274.188)" fill="#a0a6c4"/>
    <path id="Path_343" data-name="Path 343" d="M210.377,117.26l-39.432,8.568L147.73,96.64l-6.68,1.419,27.143,34.606,45.236-9.823Z" transform="translate(291.941 227.507)" fill="#00183f"/>
    <path id="Path_344" data-name="Path 344" d="M178.226,113.45l-1.143-5.38S167.015,110.2,164.8,116.3Z" transform="translate(307.579 235.034)" fill="#ffc0b6"/>
    <line id="Line_7" data-name="Line 7" y1="25.789" x2="14.763" transform="translate(519.256 296.853)" fill="none" stroke="#ffb7ab" stroke-miterlimit="10" stroke-width="1"/>
    <rect id="Rectangle_127" data-name="Rectangle 127" width="237.275" height="60.891" rx="2" transform="translate(494.179 490.335)" fill="#fff"/>
    <path id="Path_353" data-name="Path 353" d="M7.861,0h126.8a7.861,7.861,0,0,1,7.861,7.861V53.03a7.861,7.861,0,0,1-7.861,7.861H7.861A7.861,7.861,0,0,1,0,53.03V7.861A7.861,7.861,0,0,1,7.861,0Z" transform="translate(494.179 668.297)" fill="#a0a6c4"/>
    <g id="Group_173" data-name="Group 173" transform="translate(662.604 661.266)">
      <path id="Rectangle_129" data-name="Rectangle 129" d="M7.14,0H58.983a7.139,7.139,0,0,1,7.139,7.139V58.981a7.14,7.14,0,0,1-7.14,7.14H7.139A7.139,7.139,0,0,1,0,58.982V7.14A7.14,7.14,0,0,1,7.14,0Z" transform="translate(0)" fill="none" stroke="#fff" stroke-miterlimit="10" stroke-width="2"/>
    </g>
    <rect id="Rectangle_130" data-name="Rectangle 130" width="66.121" height="66.119" rx="7.139" transform="translate(581.651 575.996)" fill="none" stroke="#fff" stroke-miterlimit="10" stroke-width="2"/>
    <path id="Rectangle_131" data-name="Rectangle 131" d="M8.895,0H73.479a8.894,8.894,0,0,1,8.894,8.894V73.477a8.892,8.892,0,0,1-8.892,8.892H8.894A8.894,8.894,0,0,1,0,73.475V8.895A8.895,8.895,0,0,1,8.895,0Z" transform="translate(795.817 481.867)" fill="#ff6d00"/>
    <path id="Path_346" data-name="Path 346" d="M269.52,425.955a13.529,13.529,0,1,1-13.527-13.53A13.527,13.527,0,0,1,269.52,425.955Z" transform="translate(358.719 435.445)" fill="#a0a6c4"/>
    <g id="Group_174" data-name="Group 174" transform="translate(564.815 398.994)">
      <path id="Path_347" data-name="Path 347" d="M316.1,150.227H224.762a4.228,4.228,0,0,1,0-8.457H316.1a4.228,4.228,0,1,1,0,8.457Z" transform="translate(-220.535 -141.77)" fill="#a0a6c4"/>
    </g>
    <path id="Path_348" data-name="Path 348" d="M366.874,256.3a2.537,2.537,0,1,1-2.536-2.536A2.537,2.537,0,0,1,366.874,256.3Z" transform="translate(437.3 330.969)" fill="#fff"/>
    <path id="Path_349" data-name="Path 349" d="M366.874,263.417a2.537,2.537,0,1,1-2.536-2.536A2.537,2.537,0,0,1,366.874,263.417Z" transform="translate(437.3 335.656)" fill="#fff"/>
    <path id="Path_350" data-name="Path 350" d="M366.874,249.179a2.537,2.537,0,1,1-2.536-2.536A2.537,2.537,0,0,1,366.874,249.179Z" transform="translate(437.3 326.281)" fill="#fff"/>
    <path id="Path_351" data-name="Path 351" d="M225.374,255.765a5.942,5.942,0,1,1-5.942-5.944A5.944,5.944,0,0,1,225.374,255.765Z" transform="translate(339.642 328.374)" fill="#fff"/>
    <path id="Path_352" data-name="Path 352" d="M307.735,273.136a5.942,5.942,0,1,1-5.944-5.942A5.946,5.946,0,0,1,307.735,273.136Z" transform="translate(393.874 339.813)" fill="#fff"/>
  </g>
</svg>
